<svg width="40" height="40" viewBox="0 0 40 40" fill="none" xmlns="http://www.w3.org/2000/svg">
<path d="M32.6311 11.25H7.36871C7.06109 11.25 6.76427 11.3634 6.53505 11.5686C6.30584 11.7737 6.16032 12.0562 6.12635 12.362L3.90413 32.362C3.88472 32.5367 3.90238 32.7135 3.95596 32.881C4.00954 33.0484 4.09783 33.2027 4.21507 33.3337C4.33232 33.4646 4.47588 33.5694 4.63637 33.6412C4.79686 33.7129 4.97069 33.75 5.14648 33.75H34.8533C35.0291 33.75 35.2029 33.7129 35.3634 33.6412C35.5239 33.5694 35.6675 33.4646 35.7847 33.3337C35.902 33.2027 35.9903 33.0484 36.0438 32.881C36.0974 32.7135 36.1151 32.5367 36.0957 32.362L33.8735 12.362C33.8395 12.0562 33.694 11.7737 33.4648 11.5686C33.2355 11.3634 32.9387 11.25 32.6311 11.25Z" stroke="#21211F" stroke-width="3" stroke-linecap="round" stroke-linejoin="round"/>
<path d="M13.75 16.25V11.25C13.75 9.5924 14.4085 8.00269 15.5806 6.83058C16.7527 5.65848 18.3424 5 20 5C21.6576 5 23.2473 5.65848 24.4194 6.83058C25.5915 8.00269 26.25 9.5924 26.25 11.25V16.25" stroke="#21211F" stroke-width="3" stroke-linecap="round" stroke-linejoin="round"/>
</svg>