<svg width="40" height="40" viewBox="0 0 40 40" fill="none" xmlns="http://www.w3.org/2000/svg">
<path d="M20.8839 33.1066L33.5452 20.4453C36.6562 17.3343 37.1152 12.2163 34.1711 8.94685C33.4337 8.12555 32.5366 7.46311 31.5347 6.99994C30.5328 6.53678 29.447 6.28261 28.3436 6.25294C27.2402 6.22326 26.1423 6.41872 25.117 6.82736C24.0916 7.23601 23.1603 7.84928 22.3798 8.62977L20 11.0095L17.9453 8.95484C14.8343 5.84383 9.71627 5.38486 6.44685 8.32892C5.62555 9.06636 4.96311 9.9634 4.49994 10.9653C4.03678 11.9672 3.78261 13.053 3.75294 14.1564C3.72326 15.2598 3.91872 16.3577 4.32736 17.383C4.73601 18.4084 5.34928 19.3397 6.12977 20.1202L19.1161 33.1066C19.3505 33.341 19.6685 33.4727 20 33.4727C20.3315 33.4727 20.6495 33.341 20.8839 33.1066V33.1066Z" stroke="#21211F" stroke-width="3" stroke-linecap="round" stroke-linejoin="round"/>
</svg>