<svg width="60" height="12" viewBox="0 0 60 12" fill="none" xmlns="http://www.w3.org/2000/svg">
<rect width="12" height="12" fill="white" fill-opacity="0.85"/>
<path d="M6.20677 8.94059L8.57093 10.4384C8.87313 10.6299 9.24833 10.3451 9.15866 9.99237L8.4756 7.30539C8.45637 7.23055 8.45864 7.1518 8.48217 7.0782C8.5057 7.0046 8.54953 6.93913 8.60861 6.88933L10.7286 5.12479C11.0072 4.89294 10.8634 4.43063 10.5055 4.4074L7.73691 4.22772C7.66234 4.22239 7.59081 4.19599 7.53067 4.15159C7.47052 4.10718 7.42422 4.04661 7.39717 3.97691L6.36459 1.37661C6.33652 1.30264 6.28661 1.23895 6.22149 1.19401C6.15637 1.14907 6.07912 1.125 6 1.125C5.92088 1.125 5.84363 1.14907 5.77851 1.19401C5.71339 1.23895 5.66348 1.30264 5.63542 1.37661L4.60284 3.97691C4.57578 4.04661 4.52949 4.10718 4.46934 4.15159C4.40919 4.19599 4.33766 4.22239 4.26309 4.22772L1.49447 4.4074C1.13658 4.43063 0.992798 4.89294 1.27136 5.12479L3.39139 6.88933C3.45047 6.93913 3.4943 7.0046 3.51783 7.0782C3.54136 7.1518 3.54364 7.23055 3.5244 7.30539L2.89094 9.79727C2.78333 10.2206 3.23358 10.5623 3.59622 10.3325L5.79323 8.94059C5.85502 8.90126 5.92675 8.88036 6 8.88036C6.07325 8.88036 6.14498 8.90126 6.20677 8.94059V8.94059Z" stroke="#EC407A" stroke-width="1.5" stroke-linecap="round" stroke-linejoin="round"/>
<rect width="12" height="12" transform="translate(16)" fill="white" fill-opacity="0.85"/>
<path d="M22.2068 8.94059L24.5709 10.4384C24.8731 10.6299 25.2483 10.3451 25.1587 9.99237L24.4756 7.30539C24.4564 7.23055 24.4586 7.1518 24.4822 7.0782C24.5057 7.0046 24.5495 6.93913 24.6086 6.88933L26.7286 5.12479C27.0072 4.89294 26.8634 4.43063 26.5055 4.4074L23.7369 4.22772C23.6623 4.22239 23.5908 4.19599 23.5307 4.15159C23.4705 4.10718 23.4242 4.04661 23.3972 3.97691L22.3646 1.37661C22.3365 1.30264 22.2866 1.23895 22.2215 1.19401C22.1564 1.14907 22.0791 1.125 22 1.125C21.9209 1.125 21.8436 1.14907 21.7785 1.19401C21.7134 1.23895 21.6635 1.30264 21.6354 1.37661L20.6028 3.97691C20.5758 4.04661 20.5295 4.10718 20.4693 4.15159C20.4092 4.19599 20.3377 4.22239 20.2631 4.22772L17.4945 4.4074C17.1366 4.43063 16.9928 4.89294 17.2714 5.12479L19.3914 6.88933C19.4505 6.93913 19.4943 7.0046 19.5178 7.0782C19.5414 7.1518 19.5436 7.23055 19.5244 7.30539L18.8909 9.79727C18.7833 10.2206 19.2336 10.5623 19.5962 10.3325L21.7932 8.94059C21.855 8.90126 21.9268 8.88036 22 8.88036C22.0733 8.88036 22.145 8.90126 22.2068 8.94059V8.94059Z" stroke="#EC407A" stroke-width="1.5" stroke-linecap="round" stroke-linejoin="round"/>
<rect width="12" height="12" transform="translate(32)" fill="white" fill-opacity="0.85"/>
<path d="M38.2068 8.94059L40.5709 10.4384C40.8731 10.6299 41.2483 10.3451 41.1587 9.99237L40.4756 7.30539C40.4564 7.23055 40.4586 7.1518 40.4822 7.0782C40.5057 7.0046 40.5495 6.93913 40.6086 6.88933L42.7286 5.12479C43.0072 4.89294 42.8634 4.43063 42.5055 4.4074L39.7369 4.22772C39.6623 4.22239 39.5908 4.19599 39.5307 4.15159C39.4705 4.10718 39.4242 4.04661 39.3972 3.97691L38.3646 1.37661C38.3365 1.30264 38.2866 1.23895 38.2215 1.19401C38.1564 1.14907 38.0791 1.125 38 1.125C37.9209 1.125 37.8436 1.14907 37.7785 1.19401C37.7134 1.23895 37.6635 1.30264 37.6354 1.37661L36.6028 3.97691C36.5758 4.04661 36.5295 4.10718 36.4693 4.15159C36.4092 4.19599 36.3377 4.22239 36.2631 4.22772L33.4945 4.4074C33.1366 4.43063 32.9928 4.89294 33.2714 5.12479L35.3914 6.88933C35.4505 6.93913 35.4943 7.0046 35.5178 7.0782C35.5414 7.1518 35.5436 7.23055 35.5244 7.30539L34.8909 9.79727C34.7833 10.2206 35.2336 10.5623 35.5962 10.3325L37.7932 8.94059C37.855 8.90126 37.9268 8.88036 38 8.88036C38.0733 8.88036 38.145 8.90126 38.2068 8.94059V8.94059Z" stroke="#EC407A" stroke-width="1.5" stroke-linecap="round" stroke-linejoin="round"/>
<rect width="12" height="12" transform="translate(48)" fill="white" fill-opacity="0.85"/>
<path d="M54.2068 8.94059L56.5709 10.4384C56.8731 10.6299 57.2483 10.3451 57.1587 9.99237L56.4756 7.30539C56.4564 7.23055 56.4586 7.1518 56.4822 7.0782C56.5057 7.0046 56.5495 6.93913 56.6086 6.88933L58.7286 5.12479C59.0072 4.89294 58.8634 4.43063 58.5055 4.4074L55.7369 4.22772C55.6623 4.22239 55.5908 4.19599 55.5307 4.15159C55.4705 4.10718 55.4242 4.04661 55.3972 3.97691L54.3646 1.37661C54.3365 1.30264 54.2866 1.23895 54.2215 1.19401C54.1564 1.14907 54.0791 1.125 54 1.125C53.9209 1.125 53.8436 1.14907 53.7785 1.19401C53.7134 1.23895 53.6635 1.30264 53.6354 1.37661L52.6028 3.97691C52.5758 4.04661 52.5295 4.10718 52.4693 4.15159C52.4092 4.19599 52.3377 4.22239 52.2631 4.22772L49.4945 4.4074C49.1366 4.43063 48.9928 4.89294 49.2714 5.12479L51.3914 6.88933C51.4505 6.93913 51.4943 7.0046 51.5178 7.0782C51.5414 7.1518 51.5436 7.23055 51.5244 7.30539L50.8909 9.79727C50.7833 10.2206 51.2336 10.5623 51.5962 10.3325L53.7932 8.94059C53.855 8.90126 53.9268 8.88036 54 8.88036C54.0733 8.88036 54.145 8.90126 54.2068 8.94059V8.94059Z" stroke="#EC407A" stroke-width="1.5" stroke-linecap="round" stroke-linejoin="round"/>
</svg>