<svg width="40" height="40" viewBox="0 0 40 40" fill="none" xmlns="http://www.w3.org/2000/svg">
<path d="M15 8.75V31.25" stroke="#21211F" stroke-width="3" stroke-linecap="round" stroke-linejoin="round"/>
<path d="M3.75 26.1235C3.74995 25.8355 3.84947 25.5564 4.0317 25.3334C4.21393 25.1104 4.46765 24.9573 4.74987 24.9C5.87915 24.6693 6.89409 24.0556 7.62298 23.1627C8.35188 22.2698 8.75 21.1526 8.75 20C8.75 18.8474 8.35188 17.7302 7.62298 16.8373C6.89409 15.9444 5.87915 15.3307 4.74987 15.1C4.46765 15.0427 4.21393 14.8896 4.0317 14.6666C3.84947 14.4436 3.74995 14.1645 3.75 13.8765V10C3.75 9.66848 3.8817 9.35054 4.11612 9.11612C4.35054 8.8817 4.66848 8.75 5 8.75H35C35.3315 8.75 35.6495 8.8817 35.8839 9.11612C36.1183 9.35054 36.25 9.66848 36.25 10V13.8765C36.2501 14.1645 36.1505 14.4436 35.9683 14.6666C35.7861 14.8896 35.5323 15.0427 35.2501 15.1C34.1208 15.3307 33.1059 15.9444 32.377 16.8373C31.6481 17.7302 31.25 18.8474 31.25 20C31.25 21.1526 31.6481 22.2699 32.377 23.1627C33.1059 24.0556 34.1208 24.6693 35.2501 24.9C35.5323 24.9573 35.7861 25.1104 35.9683 25.3334C36.1505 25.5564 36.2501 25.8355 36.25 26.1235V30C36.25 30.3315 36.1183 30.6495 35.8839 30.8839C35.6495 31.1183 35.3315 31.25 35 31.25H5C4.66848 31.25 4.35054 31.1183 4.11612 30.8839C3.8817 30.6495 3.75 30.3315 3.75 30V26.1235Z" stroke="#21211F" stroke-width="3" stroke-linecap="round" stroke-linejoin="round"/>
</svg>