<svg width="40" height="40" viewBox="0 0 40 40" fill="none" xmlns="http://www.w3.org/2000/svg">
<path d="M20 35C28.2843 35 35 28.2843 35 20C35 11.7157 28.2843 5 20 5C11.7157 5 5 11.7157 5 20C5 28.2843 11.7157 35 20 35Z" stroke="#21211F" stroke-width="3" stroke-linecap="round" stroke-linejoin="round"/>
<path d="M20 25C23.4518 25 26.25 22.2018 26.25 18.75C26.25 15.2982 23.4518 12.5 20 12.5C16.5482 12.5 13.75 15.2982 13.75 18.75C13.75 22.2018 16.5482 25 20 25Z" stroke="#21211F" stroke-width="3" stroke-linecap="round" stroke-linejoin="round"/>
<path d="M9.96875 31.1522C10.9103 29.301 12.3458 27.7464 14.1163 26.6606C15.8868 25.5747 17.9232 25 20.0001 25C22.0771 25 24.1135 25.5747 25.884 26.6605C27.6545 27.7464 29.0899 29.3009 30.0315 31.1522" stroke="#21211F" stroke-width="3" stroke-linecap="round" stroke-linejoin="round"/>
</svg>