<svg xmlns="http://www.w3.org/2000/svg" version="1.1" xmlns:xlink="http://www.w3.org/1999/xlink" xmlns:svgjs="http://svgjs.dev/svgjs" width="1600" height="2000" preserveAspectRatio="none" viewBox="0 0 1600 2000"><g mask="url(&quot;#SvgjsMask13101&quot;)" fill="none"><rect width="1600" height="2000" x="0" y="0" fill="url(&quot;#SvgjsLinearGradient13102&quot;)"></rect><path d="M15.62 -57.15L118.68 2.35L118.68 121.35L15.62 180.85L-87.44 121.35L-87.44 2.35zM15.62 1370.85L118.68 1430.35L118.68 1549.35L15.62 1608.85L-87.44 1549.35L-87.44 1430.35zM221.74 299.85L324.8 359.35L324.8 478.35L221.74 537.85L118.68 478.35L118.68 359.35zM324.8 835.35L427.86 894.85L427.86 1013.85L324.8 1073.35L221.74 1013.85L221.74 894.85zM221.74 1013.85L324.8 1073.35L324.8 1192.35L221.74 1251.85L118.68 1192.35L118.68 1073.35zM221.74 1727.85L324.8 1787.35L324.8 1906.35L221.74 1965.85L118.68 1906.35L118.68 1787.35zM427.86 -57.15L530.92 2.35L530.92 121.35L427.86 180.85L324.8 121.35L324.8 2.35zM530.92 121.35L633.98 180.85L633.98 299.85L530.92 359.35L427.86 299.85L427.86 180.85zM427.86 656.85L530.92 716.35L530.92 835.35L427.86 894.85L324.8 835.35L324.8 716.35zM427.86 1013.85L530.92 1073.35L530.92 1192.35L427.86 1251.85L324.8 1192.35L324.8 1073.35zM427.86 1370.85L530.92 1430.35L530.92 1549.35L427.86 1608.85L324.8 1549.35L324.8 1430.35zM737.04 1549.35L840.1 1608.85L840.1 1727.85L737.04 1787.35L633.98 1727.85L633.98 1608.85zM737.04 1906.35L840.1 1965.85L840.1 2084.85L737.04 2144.35L633.98 2084.85L633.98 1965.85zM840.1 -57.15L943.16 2.35L943.16 121.35L840.1 180.85L737.04 121.35L737.04 2.35zM943.16 478.35L1046.22 537.85L1046.22 656.85L943.16 716.35L840.1 656.85L840.1 537.85zM943.16 835.35L1046.22 894.85L1046.22 1013.85L943.16 1073.35L840.1 1013.85L840.1 894.85zM840.1 1013.85L943.16 1073.35L943.16 1192.35L840.1 1251.85L737.04 1192.35L737.04 1073.35zM943.16 1192.35L1046.22 1251.85L1046.22 1370.85L943.16 1430.35L840.1 1370.85L840.1 1251.85zM1149.28 478.35L1252.34 537.85L1252.34 656.85L1149.28 716.35L1046.22 656.85L1046.22 537.85zM1149.28 835.35L1252.34 894.85L1252.34 1013.85L1149.28 1073.35L1046.22 1013.85L1046.22 894.85zM1046.22 1013.85L1149.28 1073.35L1149.28 1192.35L1046.22 1251.85L943.16 1192.35L943.16 1073.35zM1149.28 1549.35L1252.34 1608.85L1252.34 1727.85L1149.28 1787.35L1046.22 1727.85L1046.22 1608.85zM1046.22 1727.85L1149.28 1787.35L1149.28 1906.35L1046.22 1965.85L943.16 1906.35L943.16 1787.35zM1355.4 121.35L1458.46 180.85L1458.46 299.85L1355.4 359.35L1252.34 299.85L1252.34 180.85zM1252.34 299.85L1355.4 359.35L1355.4 478.35L1252.34 537.85L1149.28 478.35L1149.28 359.35zM1355.4 478.35L1458.46 537.85L1458.46 656.85L1355.4 716.35L1252.34 656.85L1252.34 537.85zM1252.34 656.85L1355.4 716.35L1355.4 835.35L1252.34 894.85L1149.28 835.35L1149.28 716.35zM1355.4 835.35L1458.46 894.85L1458.46 1013.85L1355.4 1073.35L1252.34 1013.85L1252.34 894.85zM1252.34 1013.85L1355.4 1073.35L1355.4 1192.35L1252.34 1251.85L1149.28 1192.35L1149.28 1073.35zM1252.34 1727.85L1355.4 1787.35L1355.4 1906.35L1252.34 1965.85L1149.28 1906.35L1149.28 1787.35zM1458.46 -57.15L1561.52 2.35L1561.52 121.35L1458.46 180.85L1355.4 121.35L1355.4 2.35zM1561.52 478.35L1664.58 537.85L1664.58 656.85L1561.52 716.35L1458.46 656.85L1458.46 537.85zM1458.46 656.85L1561.52 716.35L1561.52 835.35L1458.46 894.85L1355.4 835.35L1355.4 716.35zM1561.52 835.35L1664.58 894.85L1664.58 1013.85L1561.52 1073.35L1458.46 1013.85L1458.46 894.85zM1458.46 1727.85L1561.52 1787.35L1561.52 1906.35L1458.46 1965.85L1355.4 1906.35L1355.4 1787.35z" stroke="url(&quot;#SvgjsLinearGradient13103&quot;)" stroke-width="2"></path></g><defs><mask id="SvgjsMask13101"><rect width="1600" height="2000" fill="#ffffff"></rect></mask><linearGradient x1="106.25%" y1="95%" x2="-6.25%" y2="5%" gradientUnits="userSpaceOnUse" id="SvgjsLinearGradient13102"><stop stop-color="rgba(250, 251, 255, 1)" offset="0.02"></stop><stop stop-color="rgba(241, 241, 255, 1)" offset="0.36"></stop><stop stop-color="rgba(255, 255, 255, 1)" offset="0.67"></stop><stop stop-color="rgba(255, 252, 255, 1)" offset="0.99"></stop></linearGradient><linearGradient x1="1700" y1="1900" x2="-100" y2="100" gradientUnits="userSpaceOnUse" id="SvgjsLinearGradient13103"><stop stop-color="rgba(255, 218, 254, 1)" offset="0"></stop><stop stop-color="rgba(214, 232, 255, 1)" offset="1"></stop></linearGradient></defs></svg>